<?xml version="1.0" standalone="no"?>
<!DOCTYPE svg PUBLIC "-//W3C//DTD SVG 20010904//EN"
 "http://www.w3.org/TR/2001/REC-SVG-20010904/DTD/svg10.dtd">
<svg version="1.0" xmlns="http://www.w3.org/2000/svg"
 width="767.000000pt" height="767.000000pt" viewBox="0 0 767.000000 767.000000"
 preserveAspectRatio="xMidYMid meet">
<metadata>
Created by potrace 1.14, written by Peter Selinger 2001-2017
</metadata>
<g transform="translate(0.000000,767.000000) scale(0.100000,-0.100000)"
fill="#000000" stroke="none">
<path d="M1790 3920 l0 -500 80 0 80 0 2 312 3 313 230 -214 c235 -219 343
-320 428 -400 l47 -45 0 502 0 502 -80 0 -80 0 -2 -305 -3 -304 -100 91 c-55
50 -211 194 -347 320 -136 125 -250 228 -253 228 -3 0 -5 -225 -5 -500z"/>
<path d="M4015 4389 c-3 -4 101 -136 303 -382 34 -42 62 -81 62 -87 0 -5 -64
-92 -142 -193 -198 -253 -228 -293 -228 -300 0 -9 192 -8 205 1 6 4 71 85 144
180 73 94 134 172 135 172 2 0 65 -81 141 -180 l138 -180 104 0 c56 0 103 3
103 6 0 3 -85 116 -190 250 l-189 245 102 125 c56 70 141 174 189 232 48 58
86 108 84 111 -2 3 -51 5 -108 3 l-103 -4 -120 -149 c-66 -83 -127 -159 -135
-170 -15 -19 -22 -12 -150 149 l-135 170 -103 3 c-57 2 -105 2 -107 -2z"/>
<path d="M5153 4384 c-2 -6 -3 -42 -1 -80 l3 -69 172 -3 173 -2 2 -403 3 -402
80 0 80 0 3 402 2 403 173 2 172 3 3 77 3 78 -432 2 c-307 2 -433 0 -436 -8z"/>
<path d="M3022 3908 l3 -483 370 0 370 0 0 80 0 80 -287 3 -288 2 0 120 0 120
260 0 260 0 0 80 0 80 -260 0 -260 0 0 120 0 120 288 2 287 3 3 78 3 77 -376
0 -375 0 2 -482z"/>
</g>
</svg>
